# xmcd
#
# Track frame offsets:
#	150
#	12648
#	26257
#	49329
#	70027
#	81932
#	92526
#	108497
#	124526
#	134232
#	147163
#	163713
#	181372
#	198320
#	210498
#	220577
#	232676
#
# Disc length: 3312 seconds
#
# Revision: 1
# Processed by: cddbd v1.4PL0 Copyright (c) Steve Scherf et al.
# Submitted via: audiograbber 1.81.02
#
DISCID=e80cee11
DTITLE=David Allen Coe - The Original Outlaw Of Country Music [CD2]
DYEAR=1900
DGENRE=Country
TTITLE0=Tennessee Whiskey
TTITLE1=The Ride (Hank Sr's Ghost)
TTITLE2=If That Ain't Country
TTITLE3=You Never Even Called Me By My Name
TTITLE4=Take This Job And Shove It
TTITLE5=Train Of Love
TTITLE6=Willie, Waylon And Me
TTITLE7=Be Careful Of Stones That You Throw
TTITLE8=Frankie And Johnny
TTITLE9=How Fast Them Trucks Can Go
TTITLE10=Long Black Veil
TTITLE11=Just Because
TTITLE12=Please Come To Boston
TTITLE13=Me And Bobby McGee
TTITLE14=Mamma Tried
TTITLE15=Truck Driving Man
TTITLE16=Waiting For A Train
EXTD=
EXTT0=
EXTT1=
EXTT2=
EXTT3=
EXTT4=
EXTT5=
EXTT6=
EXTT7=
EXTT8=
EXTT9=
EXTT10=
EXTT11=
EXTT12=
EXTT13=
EXTT14=
EXTT15=
EXTT16=
PLAYORDER=
